<?xml version="1.0" standalone="no"?>
<!DOCTYPE svg PUBLIC "-//W3C//DTD SVG 20010904//EN"
 "http://www.w3.org/TR/2001/REC-SVG-20010904/DTD/svg10.dtd">
<svg version="1.0" xmlns="http://www.w3.org/2000/svg"
 width="199.000000pt" height="199.000000pt" viewBox="0 0 199.000000 199.000000"
 preserveAspectRatio="xMidYMid meet">
<metadata>
Created by potrace 1.14, written by Peter Selinger 2001-2017
</metadata>
<g transform="translate(0.000000,199.000000) scale(0.100000,-0.100000)"
fill="#000000" stroke="none">
<path d="M0 995 l0 -995 995 0 995 0 0 995 0 995 -995 0 -995 0 0 -995z m1449
697 c5 -10 19 -73 31 -140 17 -93 20 -125 11 -136 -6 -8 -71 -28 -144 -46 -73
-18 -136 -36 -140 -40 -4 -4 15 -132 43 -286 29 -153 53 -313 55 -354 2 -41 6
-91 9 -110 3 -19 7 -48 10 -65 2 -16 9 -31 15 -33 6 -2 8 -8 5 -13 -8 -13 15
-147 27 -155 12 -7 12 -51 0 -59 -6 -3 -74 -21 -153 -39 -119 -28 -146 -32
-163 -21 -16 10 -27 55 -67 271 -26 142 -49 277 -52 299 -6 42 -72 405 -81
442 -5 21 -7 21 -113 -24 -164 -69 -178 -73 -196 -60 -10 8 -24 62 -41 163
-33 202 -34 201 13 214 63 19 876 208 899 209 12 0 27 -7 32 -17z"/>
<path d="M602 1278 c6 -18 28 -21 28 -4 0 9 -7 16 -16 16 -9 0 -14 -5 -12 -12z"/>
<path d="M645 1280 c-3 -5 -2 -10 4 -10 5 0 13 5 16 10 3 6 2 10 -4 10 -5 0
-13 -4 -16 -10z"/>
<path d="M680 1249 c0 -5 5 -7 10 -4 6 3 10 8 10 11 0 2 -4 4 -10 4 -5 0 -10
-5 -10 -11z"/>
<path d="M730 1250 c0 -5 7 -10 15 -10 8 0 15 5 15 10 0 6 -7 10 -15 10 -8 0
-15 -4 -15 -10z"/>
<path d="M1004 593 c4 -32 10 -79 13 -105 3 -27 8 -48 12 -48 3 0 7 -18 7 -39
2 -53 12 -91 25 -91 8 0 9 17 5 53 -3 28 -8 70 -11 92 -5 50 -10 73 -23 106
-6 15 -8 29 -5 33 9 9 -6 56 -19 56 -7 0 -9 -18 -4 -57z"/>
</g>
</svg>
